<svg xmlns="http://www.w3.org/2000/svg" viewBox="0 0 128.5 18.86"><title>logo</title><path d="M196.8,85.63V74.11h2.76V76h0A4,4,0,0,1,201,74.39a3.43,3.43,0,0,1,2-.61,2.91,2.91,0,0,1,.7.07v2.64a3.7,3.7,0,0,0-.89-.12,3.42,3.42,0,0,0-1.32.24,2.46,2.46,0,0,0-.9.6,3.17,3.17,0,0,0-.53.8,3.68,3.68,0,0,0-.28.8,3.31,3.31,0,0,0-.07.65v6.17Z" transform="translate(-196.8 -67.2)" style="fill:#d95947"/><path d="M216,74.11V85.63h-2.74V83.79h0a3.63,3.63,0,0,1-1.38,1.55,3.93,3.93,0,0,1-2.2.64,3.8,3.8,0,0,1-3.18-1.36,5.17,5.17,0,0,1-1.07-3.3v-7.2h2.88V80.5q0,3.07,2.16,3.07a2.35,2.35,0,0,0,2-.92,3.55,3.55,0,0,0,.7-2.2V74.11Z" transform="translate(-196.8 -67.2)" style="fill:#d95947"/><path d="M237.36,81.29l1.9,1.68a8.12,8.12,0,0,1-6.74,3.1,7.58,7.58,0,0,1-5.5-2,7,7,0,0,1-2.09-5.28,10.52,10.52,0,0,1,2.89-7.49,9.39,9.39,0,0,1,7.12-3.07,8.12,8.12,0,0,1,3.42.72,5.61,5.61,0,0,1,2.36,1.87l-2.33,1.75A3.94,3.94,0,0,0,237,71.29a4.22,4.22,0,0,0-2.17-.54A6.13,6.13,0,0,0,230,73.07a8,8,0,0,0-2,5.32A5.26,5.26,0,0,0,229.3,82a4.55,4.55,0,0,0,3.58,1.45A5.5,5.5,0,0,0,237.36,81.29Z" transform="translate(-196.8 -67.2)" style="fill:#d95947"/><path d="M244.95,76h0a3.92,3.92,0,0,1,3.38-2.23,2.89,2.89,0,0,1,.7.07l-.38,2.62a3.42,3.42,0,0,0-.86-.12,3.48,3.48,0,0,0-1.6.35,2.54,2.54,0,0,0-1,.9,5.9,5.9,0,0,0-.52,1,4.36,4.36,0,0,0-.24.86l-1.08,6.17h-2.81l1.61-9a24.28,24.28,0,0,0,.36-2.47h2.64Q245.11,74.81,244.95,76Z" transform="translate(-196.8 -67.2)" style="fill:#d95947"/><path d="M256.54,78.34a4,4,0,0,0,.07-.74q0-1.56-2.14-1.56a5.66,5.66,0,0,0-3.34,1.15l-1.08-1.9a8,8,0,0,1,4.82-1.49,6.87,6.87,0,0,1,2.15.31,3.59,3.59,0,0,1,1.63,1.12,3.06,3.06,0,0,1,.68,2.05,7.25,7.25,0,0,1-.1,1.08L258.41,83a18.24,18.24,0,0,0-.29,2.59h-2.59a7,7,0,0,1,.14-1.37h0a4.61,4.61,0,0,1-3.74,1.61,4.48,4.48,0,0,1-2.54-.72,2.59,2.59,0,0,1-1.08-2.33Q248.26,78.34,256.54,78.34Zm-.26,2h-.34q-5,0-5,2,0,1.44,1.87,1.44A3.2,3.2,0,0,0,255,83a3.31,3.31,0,0,0,1.12-2Z" transform="translate(-196.8 -67.2)" style="fill:#d95947"/><path d="M270.74,67.37l-.6,2.4a3.11,3.11,0,0,0-1-.17q-1.8,0-2.28,2.62l-.34,1.9h2.71l-.41,2.26h-2.66l-1.63,9.26h-2.74l1.63-9.26h-2.18l.38-2.26h2.14l.34-1.75q1-5.16,5.21-5.16A5.13,5.13,0,0,1,270.74,67.37Z" transform="translate(-196.8 -67.2)" style="fill:#d95947"/><path d="M270.86,76.39h-2l.41-2.28h2l.58-3.36h2.78L274,74.11h2.59l-.41,2.28h-2.54l-1,5.42a3.45,3.45,0,0,0-.07.67q0,1.1,1.37,1.1a3.69,3.69,0,0,0,1.08-.17l-.17,2.14a4.63,4.63,0,0,1-1.75.31q-3.36,0-3.36-2.66a7,7,0,0,1,.14-1.46Z" transform="translate(-196.8 -67.2)" style="fill:#d95947"/><path d="M294,76.06l-1.27.91a3.11,3.11,0,0,0-1.19-1.07,3.52,3.52,0,0,0-1.69-.42,4,4,0,0,0-3.11,1.28,5,5,0,0,0,0,6.48,4,4,0,0,0,3.1,1.28,3.61,3.61,0,0,0,3-1.46l1.22.91a5.22,5.22,0,0,1-4.27,1.94,5.85,5.85,0,0,1-4.34-1.67,6.25,6.25,0,0,1,0-8.47,5.85,5.85,0,0,1,4.34-1.67,5.73,5.73,0,0,1,2.34.5A4.51,4.51,0,0,1,294,76.06Z" transform="translate(-196.8 -67.2)" style="fill:#d95947"/><path d="M298.3,76.32a4,4,0,0,1,1.5-1.6,4.11,4.11,0,0,1,2.2-.61,3.41,3.41,0,0,1,3.46,2.38,4.06,4.06,0,0,1,3.94-2.38,4,4,0,0,1,3.18,1.25,5,5,0,0,1,1.09,3.38v6.89H312V79.42q0-3.94-2.9-3.94a2.67,2.67,0,0,0-2.41,1.21,5.36,5.36,0,0,0-.78,3v6H304.3V79.08a5,5,0,0,0-.59-2.69,2.33,2.33,0,0,0-2.12-.91,2.94,2.94,0,0,0-2.28,1.14,4.83,4.83,0,0,0-1,3.25v5.76h-1.63V76.87q0-1.44-.1-2.47h1.56q.1,1.2.1,1.92Z" transform="translate(-196.8 -67.2)" style="fill:#d95947"/><path d="M325.1,76.13l-1.25.94a2.73,2.73,0,0,0-1.1-1.15,3.24,3.24,0,0,0-1.66-.43,3.06,3.06,0,0,0-1.68.44,1.45,1.45,0,0,0-.7,1.31,1.38,1.38,0,0,0,.62,1.2,5.79,5.79,0,0,0,2.06.72,6.7,6.7,0,0,1,2.94,1.2,2.58,2.58,0,0,1,.95,2.09,3,3,0,0,1-1.24,2.63,5.14,5.14,0,0,1-3,.85,5,5,0,0,1-4.44-2.18l1.3-1a3.78,3.78,0,0,0,5,1.28,1.64,1.64,0,0,0,.74-1.5,1.43,1.43,0,0,0-.78-1.3,9.73,9.73,0,0,0-2.53-.86,9,9,0,0,1-1.08-.31,5.52,5.52,0,0,1-1-.5,2.33,2.33,0,0,1-.84-.9,2.73,2.73,0,0,1-.3-1.31,2.8,2.8,0,0,1,1.16-2.44,4.78,4.78,0,0,1,2.84-.83,5.18,5.18,0,0,1,2.3.54A3.64,3.64,0,0,1,325.1,76.13Z" transform="translate(-196.8 -67.2)" style="fill:#d95947"/></svg>